<?xml version="1.0" encoding="UTF-8" standalone="no"?>
<!DOCTYPE svg PUBLIC "-//W3C//DTD SVG 1.1//EN" "http://www.w3.org/Graphics/SVG/1.1/DTD/svg11.dtd">
<!-- Generated by graphviz version 2.38.0 (20140413.2041)
 -->
<!-- Title: mysql Pages: 1 -->
<svg width="1194pt" height="260pt" viewBox="0.00 0.00 1194.07 260.00" xmlns="http://www.w3.org/2000/svg" xmlns:xlink="http://www.w3.org/1999/xlink">
<g id="graph0" class="graph" transform="scale(1 1) rotate(0) translate(4 256)">
<title>mysql</title>
<polygon fill="white" stroke="none" points="-4,4 -4,-256 1190.07,-256 1190.07,4 -4,4"/>
<!-- ROOT -->
<g id="node1" class="node"><title>ROOT</title>
<polygon fill="none" stroke="black" points="514.49,-252 465.559,-234 514.49,-216 563.422,-234 514.49,-252"/>
<text text-anchor="middle" x="514.49" y="-230.3" font-family="Times,serif" font-size="14.00">ROOT</text>
</g>
<!-- /etc/my.cnf -->
<g id="node2" class="node"><title>/etc/my.cnf</title>
<ellipse fill="none" stroke="black" stroke-dasharray="1,5" cx="369.49" cy="-162" rx="51.1914" ry="18"/>
<text text-anchor="middle" x="369.49" y="-158.3" font-family="Times,serif" font-size="14.00">/etc/my.cnf</text>
</g>
<!-- ROOT&#45;&gt;/etc/my.cnf -->
<g id="edge1" class="edge"><title>ROOT-&gt;/etc/my.cnf</title>
<path fill="none" stroke="black" d="M494.329,-223.267C471.956,-212.466 435.347,-194.793 407.543,-181.37"/>
<polygon fill="black" stroke="black" points="409.012,-178.193 398.485,-176.997 405.968,-184.497 409.012,-178.193"/>
</g>
<!-- /etc/mysql/my.cnf -->
<g id="node3" class="node"><title>/etc/mysql/my.cnf</title>
<g id="a_node3"><a xlink:href="file:///etc/mysql/my.cnf" xlink:title="/etc/mysql/my.cnf">
<ellipse fill="none" stroke="black" cx="514.49" cy="-162" rx="75.2868" ry="18"/>
<text text-anchor="middle" x="514.49" y="-158.3" font-family="Times,serif" font-size="14.00">/etc/mysql/my.cnf</text>
</a>
</g>
</g>
<!-- ROOT&#45;&gt;/etc/mysql/my.cnf -->
<g id="edge2" class="edge"><title>ROOT-&gt;/etc/mysql/my.cnf</title>
<path fill="none" stroke="black" d="M514.49,-215.697C514.49,-207.983 514.49,-198.712 514.49,-190.112"/>
<polygon fill="black" stroke="black" points="517.99,-190.104 514.49,-180.104 510.99,-190.104 517.99,-190.104"/>
</g>
<!-- ~/.my.cnf -->
<g id="node10" class="node"><title>~/.my.cnf</title>
<ellipse fill="none" stroke="black" stroke-dasharray="1,5" cx="654.49" cy="-162" rx="46.2923" ry="18"/>
<text text-anchor="middle" x="654.49" y="-158.3" font-family="Times,serif" font-size="14.00">~/.my.cnf</text>
</g>
<!-- ROOT&#45;&gt;~/.my.cnf -->
<g id="edge9" class="edge"><title>ROOT-&gt;~/.my.cnf</title>
<path fill="none" stroke="black" d="M534.252,-223.119C555.962,-212.264 591.3,-194.595 618.06,-181.215"/>
<polygon fill="black" stroke="black" points="619.753,-184.282 627.132,-176.679 616.622,-178.021 619.753,-184.282"/>
</g>
<!-- /etc/mysql/conf.d/ -->
<g id="node4" class="node"><title>/etc/mysql/conf.d/</title>
<polygon fill="none" stroke="black" points="428.49,-108 312.49,-108 312.49,-72 428.49,-72 428.49,-108"/>
<text text-anchor="middle" x="370.49" y="-86.3" font-family="Times,serif" font-size="14.00">/etc/mysql/conf.d/</text>
</g>
<!-- /etc/mysql/my.cnf&#45;&gt;/etc/mysql/conf.d/ -->
<g id="edge3" class="edge"><title>/etc/mysql/my.cnf-&gt;/etc/mysql/conf.d/</title>
<path fill="none" stroke="black" d="M482.889,-145.638C462.895,-135.919 436.756,-123.212 414.717,-112.499"/>
<polygon fill="black" stroke="black" points="416.076,-109.268 405.553,-108.044 413.016,-115.564 416.076,-109.268"/>
</g>
<!-- /etc/mysql/mysql.conf.d/ -->
<g id="node7" class="node"><title>/etc/mysql/mysql.conf.d/</title>
<polygon fill="none" stroke="black" points="735.99,-108 582.99,-108 582.99,-72 735.99,-72 735.99,-108"/>
<text text-anchor="middle" x="659.49" y="-86.3" font-family="Times,serif" font-size="14.00">/etc/mysql/mysql.conf.d/</text>
</g>
<!-- /etc/mysql/my.cnf&#45;&gt;/etc/mysql/mysql.conf.d/ -->
<g id="edge6" class="edge"><title>/etc/mysql/my.cnf-&gt;/etc/mysql/mysql.conf.d/</title>
<path fill="none" stroke="black" d="M546.311,-145.638C566.444,-135.919 592.764,-123.212 614.956,-112.499"/>
<polygon fill="black" stroke="black" points="616.7,-115.544 624.184,-108.044 613.657,-109.24 616.7,-115.544"/>
</g>
<!-- /etc/mysql/conf.d/mysql.cnf -->
<g id="node5" class="node"><title>/etc/mysql/conf.d/mysql.cnf</title>
<g id="a_node5"><a xlink:href="file:///etc/mysql/conf.d/mysql.cnf" xlink:title="/etc/mysql/conf.d/mysql.cnf">
<ellipse fill="none" stroke="black" cx="110.49" cy="-18" rx="110.48" ry="18"/>
<text text-anchor="middle" x="110.49" y="-14.3" font-family="Times,serif" font-size="14.00">/etc/mysql/conf.d/mysql.cnf</text>
</a>
</g>
</g>
<!-- /etc/mysql/conf.d/&#45;&gt;/etc/mysql/conf.d/mysql.cnf -->
<g id="edge4" class="edge"><title>/etc/mysql/conf.d/-&gt;/etc/mysql/conf.d/mysql.cnf</title>
<path fill="none" stroke="black" d="M312.465,-73.3778C271.729,-62.4105 217.226,-47.7365 175.105,-36.3962"/>
<polygon fill="black" stroke="black" points="175.792,-32.9568 165.226,-33.7366 173.973,-39.7161 175.792,-32.9568"/>
</g>
<!-- /etc/mysql/conf.d/mysqldump.cnf -->
<g id="node6" class="node"><title>/etc/mysql/conf.d/mysqldump.cnf</title>
<g id="a_node6"><a xlink:href="file:///etc/mysql/conf.d/mysqldump.cnf" xlink:title="/etc/mysql/conf.d/mysqldump.cnf">
<ellipse fill="none" stroke="black" cx="370.49" cy="-18" rx="131.077" ry="18"/>
<text text-anchor="middle" x="370.49" y="-14.3" font-family="Times,serif" font-size="14.00">/etc/mysql/conf.d/mysqldump.cnf</text>
</a>
</g>
</g>
<!-- /etc/mysql/conf.d/&#45;&gt;/etc/mysql/conf.d/mysqldump.cnf -->
<g id="edge5" class="edge"><title>/etc/mysql/conf.d/-&gt;/etc/mysql/conf.d/mysqldump.cnf</title>
<path fill="none" stroke="black" d="M370.49,-71.6966C370.49,-63.9827 370.49,-54.7125 370.49,-46.1124"/>
<polygon fill="black" stroke="black" points="373.99,-46.1043 370.49,-36.1043 366.99,-46.1044 373.99,-46.1043"/>
</g>
<!-- /etc/mysql/mysql.conf.d/mysqld.cnf -->
<g id="node8" class="node"><title>/etc/mysql/mysql.conf.d/mysqld.cnf</title>
<g id="a_node8"><a xlink:href="file:///etc/mysql/mysql.conf.d/mysqld.cnf" xlink:title="/etc/mysql/mysql.conf.d/mysqld.cnf">
<ellipse fill="none" stroke="black" cx="659.49" cy="-18" rx="139.976" ry="18"/>
<text text-anchor="middle" x="659.49" y="-14.3" font-family="Times,serif" font-size="14.00">/etc/mysql/mysql.conf.d/mysqld.cnf</text>
</a>
</g>
</g>
<!-- /etc/mysql/mysql.conf.d/&#45;&gt;/etc/mysql/mysql.conf.d/mysqld.cnf -->
<g id="edge7" class="edge"><title>/etc/mysql/mysql.conf.d/-&gt;/etc/mysql/mysql.conf.d/mysqld.cnf</title>
<path fill="none" stroke="black" d="M659.49,-71.6966C659.49,-63.9827 659.49,-54.7125 659.49,-46.1124"/>
<polygon fill="black" stroke="black" points="662.99,-46.1043 659.49,-36.1043 655.99,-46.1044 662.99,-46.1043"/>
</g>
<!-- /etc/mysql/mysql.conf.d/mysqld_safe_syslog.cnf -->
<g id="node9" class="node"><title>/etc/mysql/mysql.conf.d/mysqld_safe_syslog.cnf</title>
<g id="a_node9"><a xlink:href="file:///etc/mysql/mysql.conf.d/mysqld_safe_syslog.cnf" xlink:title="/etc/mysql/mysql.conf.d/mysqld_safe_syslog.cnf">
<ellipse fill="none" stroke="black" cx="1001.49" cy="-18" rx="184.667" ry="18"/>
<text text-anchor="middle" x="1001.49" y="-14.3" font-family="Times,serif" font-size="14.00">/etc/mysql/mysql.conf.d/mysqld_safe_syslog.cnf</text>
</a>
</g>
</g>
<!-- /etc/mysql/mysql.conf.d/&#45;&gt;/etc/mysql/mysql.conf.d/mysqld_safe_syslog.cnf -->
<g id="edge8" class="edge"><title>/etc/mysql/mysql.conf.d/-&gt;/etc/mysql/mysql.conf.d/mysqld_safe_syslog.cnf</title>
<path fill="none" stroke="black" d="M736.242,-73.2906C789.544,-62.3808 860.614,-47.8343 915.772,-36.5446"/>
<polygon fill="black" stroke="black" points="916.783,-39.9103 925.879,-34.4761 915.38,-33.0525 916.783,-39.9103"/>
</g>
</g>
</svg>